<svg id="_0030_construction_site" data-name="0030_construction_site" xmlns="http://www.w3.org/2000/svg" viewBox="0 0 500 500" data-imageid="construction-site-79" imageName="Construction Site" class="illustrations_image" style="width: 161px;"><defs><style>.cls-1_construction-site-79{fill:#d1d3d4;}.cls-2_construction-site-79{fill:#fff;}.cls-3_construction-site-79{fill:#231f20;}.cls-4_construction-site-79{fill:#68e1fd;}</style></defs><g id="Background_construction-site-79"><path class="cls-1_construction-site-79" d="M213.5,321.22a.73.73,0,0,1-.58-.3c-5.06-7.31-16.16-9.64-23.73-5a.75.75,0,0,1-.62.06.7.7,0,0,1-.42-.47c-2.65-9.48-13.1-16.13-22.81-14.55a.65.65,0,0,1-.57-.16.67.67,0,0,1-.24-.54c.14-6.74-5.95-12.1-11.09-15.41a81.67,81.67,0,0,0-32.28-12.06c-4.62-.66-20.17-2-26,8.39a.7.7,0,0,1-.94.27C85.9,276.92,78.61,275,71.9,275.6c-8.28.74-15.47,6-17.48,12.81-.08.26-.15.52-.22.78a8,8,0,0,1-1.63,3.57,8,8,0,0,1-3.33,1.87c-.34.12-.69.25-1,.39a11.25,11.25,0,0,0-6.62,11.23A.68.68,0,0,1,41,307a.69.69,0,0,1-.77-.61,12.65,12.65,0,0,1,7.46-12.66c.35-.15.72-.29,1.08-.42a6.88,6.88,0,0,0,2.79-1.51,6.88,6.88,0,0,0,1.31-3c.07-.27.15-.54.22-.81,2.18-7.33,9.86-13,18.69-13.8,6.83-.61,14.2,1.26,22.54,5.7,6.47-10.55,22.29-9.17,27.05-8.49a83.08,83.08,0,0,1,32.84,12.27c7.43,4.78,11.46,10.23,11.71,15.79,9.85-1.18,20.2,5.4,23.32,14.81,8.14-4.41,19.54-1.81,24.84,5.83a.69.69,0,0,1-.18,1A.73.73,0,0,1,213.5,321.22Z"/><path class="cls-1_construction-site-79" d="M480.8,322.6H39.6a.7.7,0,0,1,0-1.4H480.8a.7.7,0,1,1,0,1.4Z"/><path class="cls-1_construction-site-79" d="M248.1,365.11h-11a.7.7,0,1,1,0-1.39h11a.7.7,0,1,1,0,1.39Z"/><path class="cls-1_construction-site-79" d="M198.66,379.24h-9.42a.7.7,0,0,1,0-1.4h9.42a.7.7,0,0,1,0,1.4Z"/><path class="cls-1_construction-site-79" d="M50.33,347.06H40.13a.7.7,0,1,1,0-1.39h10.2a.7.7,0,1,1,0,1.39Z"/><path class="cls-1_construction-site-79" d="M212.79,340.78h-7.07a.7.7,0,1,1,0-1.39h7.07a.7.7,0,0,1,0,1.39Z"/><path class="cls-1_construction-site-79" d="M459.22,362.75h-11a.7.7,0,1,1,0-1.39h11a.7.7,0,0,1,0,1.39Z"/><path class="cls-1_construction-site-79" d="M59.79,376.88H52.68a.7.7,0,0,1,0-1.39h7.11a.7.7,0,1,1,0,1.39Z"/><path class="cls-1_construction-site-79" d="M282.63,387.08h-7.06a.7.7,0,1,1,0-1.39h7.06a.7.7,0,1,1,0,1.39Z"/><path class="cls-1_construction-site-79" d="M278.71,338.43h-7.85a.7.7,0,0,1,0-1.4h7.85a.7.7,0,1,1,0,1.4Z"/><path class="cls-1_construction-site-79" d="M172.76,352.55h-7.85a.7.7,0,1,1,0-1.39h7.85a.7.7,0,1,1,0,1.39Z"/><path class="cls-1_construction-site-79" d="M467.07,340.78h-3.93a.7.7,0,1,1,0-1.39h3.93a.7.7,0,0,1,0,1.39Z"/></g><g id="Building_construction-site-79"><rect class="cls-2_construction-site-79" x="268.45" y="125.15" width="156.73" height="5.29"/><path class="cls-1_construction-site-79" d="M425.19,131.14H268.45a.7.7,0,0,1-.69-.7v-5.29a.69.69,0,0,1,.69-.7H425.19a.69.69,0,0,1,.69.7v5.29A.7.7,0,0,1,425.19,131.14Zm-156-1.4H424.49v-3.89H269.15Z"/><rect class="cls-2_construction-site-79" x="268.45" y="141.64" width="156.73" height="5.29"/><path class="cls-1_construction-site-79" d="M425.19,147.63H268.45a.7.7,0,0,1-.69-.7v-5.29a.69.69,0,0,1,.69-.7H425.19a.69.69,0,0,1,.69.7v5.29A.7.7,0,0,1,425.19,147.63Zm-156-1.4H424.49v-3.89H269.15Z"/><rect class="cls-2_construction-site-79" x="262.92" y="113.11" width="13.29" height="48.07"/><path class="cls-1_construction-site-79" d="M276.21,161.87h-13.3a.69.69,0,0,1-.69-.69V113.11a.69.69,0,0,1,.69-.7h13.3a.69.69,0,0,1,.69.7v48.07A.69.69,0,0,1,276.21,161.87Zm-12.6-1.39h11.9V113.81h-11.9Z"/><rect class="cls-2_construction-site-79" x="320.71" y="113.11" width="7.36" height="48.07"/><path class="cls-1_construction-site-79" d="M328.07,161.87h-7.36a.69.69,0,0,1-.69-.69V113.11a.69.69,0,0,1,.69-.7h7.36a.69.69,0,0,1,.69.7v48.07A.69.69,0,0,1,328.07,161.87Zm-6.66-1.39h6V113.81h-6Z"/><rect class="cls-2_construction-site-79" x="418.54" y="113.11" width="13.29" height="48.07"/><path class="cls-1_construction-site-79" d="M431.83,161.87H418.54a.7.7,0,0,1-.7-.69V113.11a.7.7,0,0,1,.7-.7h13.29a.7.7,0,0,1,.7.7v48.07A.69.69,0,0,1,431.83,161.87Zm-12.59-1.39h11.9V113.81h-11.9Z"/><path class="cls-1_construction-site-79" d="M267.71,112.83a.69.69,0,0,1-.69-.7v-3.57a.7.7,0,1,1,1.39,0v3.57A.7.7,0,0,1,267.71,112.83Z"/><path class="cls-1_construction-site-79" d="M273,112.83a.69.69,0,0,1-.69-.7v-3.57a.7.7,0,1,1,1.39,0v3.57A.7.7,0,0,1,273,112.83Z"/><path class="cls-1_construction-site-79" d="M422.61,112.83a.69.69,0,0,1-.69-.7v-3.57a.7.7,0,1,1,1.39,0v3.57A.7.7,0,0,1,422.61,112.83Z"/><path class="cls-1_construction-site-79" d="M427.88,112.83a.7.7,0,0,1-.7-.7v-3.57a.7.7,0,1,1,1.39,0v3.57A.69.69,0,0,1,427.88,112.83Z"/><rect class="cls-2_construction-site-79" x="396.57" y="257" width="57.41" height="64.51"/><path class="cls-1_construction-site-79" d="M454,322.21H396.57a.71.71,0,0,1-.7-.7V257a.7.7,0,0,1,.7-.69H454a.69.69,0,0,1,.69.69v64.51A.7.7,0,0,1,454,322.21Zm-56.72-1.4h56V257.7h-56Z"/><rect class="cls-2_construction-site-79" x="238.82" y="257" width="157.84" height="64.51"/><path class="cls-1_construction-site-79" d="M396.66,322.21H238.82a.7.7,0,0,1-.69-.7V257a.69.69,0,0,1,.69-.69H396.66a.69.69,0,0,1,.7.69v64.51A.7.7,0,0,1,396.66,322.21Zm-157.14-1.4H396V257.7H239.52Z"/><rect class="cls-2_construction-site-79" x="384.5" y="160.51" width="57.49" height="96.34"/><path class="cls-1_construction-site-79" d="M442,257.55H384.5a.7.7,0,0,1-.7-.7V160.51a.7.7,0,0,1,.7-.69H442a.69.69,0,0,1,.69.69v96.34A.69.69,0,0,1,442,257.55Zm-56.8-1.4h56.1V161.21H385.2Z"/><rect class="cls-2_construction-site-79" x="252.48" y="160.51" width="132.2" height="96.34"/><path class="cls-1_construction-site-79" d="M384.67,257.55H252.48a.7.7,0,0,1-.7-.7V160.51a.69.69,0,0,1,.7-.69H384.67a.69.69,0,0,1,.7.69v96.34A.7.7,0,0,1,384.67,257.55Zm-131.5-1.4H384V161.21H253.17Z"/><path class="cls-1_construction-site-79" d="M286.34,196.9h-12.9a.69.69,0,0,1-.7-.69V180.42a.7.7,0,0,1,.7-.7h12.9a.7.7,0,0,1,.69.7v15.79A.69.69,0,0,1,286.34,196.9Zm-12.2-1.39h11.5V181.12h-11.5Z"/><path class="cls-1_construction-site-79" d="M313.6,196.9H300.71a.69.69,0,0,1-.7-.69V180.42a.7.7,0,0,1,.7-.7H313.6a.7.7,0,0,1,.7.7v15.79A.69.69,0,0,1,313.6,196.9Zm-12.2-1.39h11.51V181.12H301.4Z"/><path class="cls-1_construction-site-79" d="M340.87,196.9H328a.69.69,0,0,1-.7-.69V180.42a.7.7,0,0,1,.7-.7h12.89a.7.7,0,0,1,.7.7v15.79A.69.69,0,0,1,340.87,196.9Zm-12.2-1.39h11.51V181.12H328.67Z"/><path class="cls-1_construction-site-79" d="M368.14,196.9h-12.9a.69.69,0,0,1-.69-.69V180.42a.7.7,0,0,1,.69-.7h12.9a.7.7,0,0,1,.7.7v15.79A.69.69,0,0,1,368.14,196.9Zm-12.2-1.39h11.51V181.12H355.94Z"/><path class="cls-1_construction-site-79" d="M286.34,226.39h-12.9a.69.69,0,0,1-.7-.69V209.91a.69.69,0,0,1,.7-.69h12.9a.69.69,0,0,1,.69.69V225.7A.69.69,0,0,1,286.34,226.39ZM274.14,225h11.5V210.61h-11.5Z"/><path class="cls-1_construction-site-79" d="M313.6,226.39H300.71a.69.69,0,0,1-.7-.69V209.91a.69.69,0,0,1,.7-.69H313.6a.69.69,0,0,1,.7.69V225.7A.69.69,0,0,1,313.6,226.39ZM301.4,225h11.51V210.61H301.4Z"/><path class="cls-1_construction-site-79" d="M340.87,226.39H328a.69.69,0,0,1-.7-.69V209.91a.69.69,0,0,1,.7-.69h12.89a.69.69,0,0,1,.7.69V225.7A.69.69,0,0,1,340.87,226.39ZM328.67,225h11.51V210.61H328.67Z"/><path class="cls-1_construction-site-79" d="M368.14,226.39h-12.9a.69.69,0,0,1-.69-.69V209.91a.69.69,0,0,1,.69-.69h12.9a.69.69,0,0,1,.7.69V225.7A.69.69,0,0,1,368.14,226.39ZM355.94,225h11.51V210.61H355.94Z"/><path class="cls-1_construction-site-79" d="M429.36,237.38h-12.9a.7.7,0,0,1-.7-.7V220.9a.7.7,0,0,1,.7-.7h12.9a.69.69,0,0,1,.69.7v15.78A.69.69,0,0,1,429.36,237.38ZM417.16,236h11.5V221.6h-11.5Z"/><path class="cls-1_construction-site-79" d="M433,298.07h-12.9a.69.69,0,0,1-.69-.69V281.59a.69.69,0,0,1,.69-.69H433a.69.69,0,0,1,.7.69v15.79A.69.69,0,0,1,433,298.07Zm-12.2-1.39h11.5V282.29h-11.5Z"/><path class="cls-1_construction-site-79" d="M412.09,195h-12.9a.69.69,0,0,1-.69-.7V178.52a.69.69,0,0,1,.69-.7h12.9a.7.7,0,0,1,.7.7V194.3A.7.7,0,0,1,412.09,195Zm-12.2-1.39H411.4V179.22H399.89Z"/><path class="cls-1_construction-site-79" d="M297.48,290.24H284.59a.7.7,0,0,1-.7-.7V273.76a.7.7,0,0,1,.7-.7h12.89a.7.7,0,0,1,.7.7v15.78A.7.7,0,0,1,297.48,290.24Zm-12.2-1.39h11.51V274.46H285.28Z"/><path class="cls-1_construction-site-79" d="M324.75,290.24H311.86a.7.7,0,0,1-.7-.7V273.76a.7.7,0,0,1,.7-.7h12.89a.7.7,0,0,1,.7.7v15.78A.7.7,0,0,1,324.75,290.24Zm-12.2-1.39h11.51V274.46H312.55Z"/><path class="cls-1_construction-site-79" d="M270.21,290.24H257.32a.7.7,0,0,1-.7-.7V273.76a.7.7,0,0,1,.7-.7h12.89a.7.7,0,0,1,.7.7v15.78A.7.7,0,0,1,270.21,290.24ZM258,288.85h11.51V274.46H258Z"/><path class="cls-1_construction-site-79" d="M352,290.24H339.13a.7.7,0,0,1-.7-.7V273.76a.7.7,0,0,1,.7-.7H352a.7.7,0,0,1,.7.7v15.78A.7.7,0,0,1,352,290.24Zm-12.2-1.39h11.51V274.46H339.82Z"/><path class="cls-1_construction-site-79" d="M379.29,290.24h-12.9a.69.69,0,0,1-.69-.7V273.76a.69.69,0,0,1,.69-.7h12.9a.7.7,0,0,1,.7.7v15.78A.7.7,0,0,1,379.29,290.24Zm-12.2-1.39H378.6V274.46H367.09Z"/></g><g id="Construction_Sign_construction-site-79" data-name="Construction Sign"><rect class="cls-2_construction-site-79" x="318.21" y="330.67" width="13.26" height="69.59"/><path class="cls-3_construction-site-79" d="M331.47,401H318.21a.69.69,0,0,1-.69-.7V330.67a.69.69,0,0,1,.69-.7h13.26a.7.7,0,0,1,.7.7v69.58A.7.7,0,0,1,331.47,401Zm-12.56-1.39h11.87v-68.2H318.91Z"/><rect class="cls-2_construction-site-79" x="399.44" y="330.67" width="13.26" height="69.59"/><path class="cls-3_construction-site-79" d="M412.7,401H399.44a.7.7,0,0,1-.7-.7V330.67a.7.7,0,0,1,.7-.7H412.7a.7.7,0,0,1,.7.7v69.58A.7.7,0,0,1,412.7,401Zm-12.56-1.39H412v-68.2H400.14Z"/><rect class="cls-2_construction-site-79" x="305.29" y="338.38" width="117.67" height="35.32"/><path class="cls-3_construction-site-79" d="M423,374.4H305.29a.7.7,0,0,1-.7-.7V338.38a.69.69,0,0,1,.7-.69H423a.7.7,0,0,1,.7.69V373.7A.7.7,0,0,1,423,374.4ZM306,373H422.26V339.08H306Z"/><polygon class="cls-3_construction-site-79" points="347.8 373.7 329.76 373.7 307.46 338.38 325.5 338.38 347.8 373.7"/><path class="cls-3_construction-site-79" d="M347.8,374.39H329.75a.68.68,0,0,1-.58-.32l-22.3-35.32a.69.69,0,0,1,.59-1.06h18a.7.7,0,0,1,.59.32l22.3,35.32a.7.7,0,0,1,0,.7A.67.67,0,0,1,347.8,374.39ZM330.14,373h16.4l-21.42-33.93h-16.4Z"/><polygon class="cls-3_construction-site-79" points="384.3 373.7 366.25 373.7 343.95 338.38 362 338.38 384.3 373.7"/><path class="cls-3_construction-site-79" d="M384.3,374.39H366.25a.7.7,0,0,1-.59-.32l-22.29-35.32a.68.68,0,0,1,0-.7.71.71,0,0,1,.61-.36H362a.7.7,0,0,1,.59.32l22.29,35.32a.66.66,0,0,1,0,.7A.67.67,0,0,1,384.3,374.39ZM366.63,373H383l-21.42-33.93H345.21Z"/><polygon class="cls-3_construction-site-79" points="420.79 373.7 402.74 373.7 380.45 338.38 398.49 338.38 420.79 373.7"/><path class="cls-3_construction-site-79" d="M420.79,374.39H402.74a.67.67,0,0,1-.58-.32l-22.3-35.32a.7.7,0,0,1,0-.7.69.69,0,0,1,.61-.36h18a.7.7,0,0,1,.59.32l22.3,35.32a.7.7,0,0,1,0,.7A.68.68,0,0,1,420.79,374.39ZM403.13,373h16.4l-21.42-33.93h-16.4Z"/><path class="cls-3_construction-site-79" d="M422.33,401.21H380.74a.7.7,0,1,1,0-1.39h41.59a.7.7,0,1,1,0,1.39Z"/><path class="cls-3_construction-site-79" d="M337.31,401.21H310.36a.7.7,0,0,1,0-1.39h26.95a.7.7,0,1,1,0,1.39Z"/></g><g id="Character_construction-site-79"><path class="cls-3_construction-site-79" d="M150.92,174.37s24.07,51.06,27.3,58.44-11.07,24.43-16.6,20.28S150.92,174.37,150.92,174.37Z"/><path class="cls-2_construction-site-79" d="M95.59,391.41s-1,6.18.48,8.55,2.69,5.39,3.32,10.93a12.31,12.31,0,0,1-9,4.12c-5.71,0-11.41-4.28-12-6.34s4.59-23.91,4.59-23.91Z"/><path class="cls-3_construction-site-79" d="M90.37,415.71c-6.13,0-12-4.49-12.71-6.83-.65-2.13,3.71-20.6,4.58-24.28a.7.7,0,0,1,1-.45l12.66,6.65a.69.69,0,0,1,.37.72c-.25,1.65-.68,6.32.38,8.09,1.31,2.17,2.74,5.21,3.42,11.2a.7.7,0,0,1-.15.52A12.91,12.91,0,0,1,90.37,415.71Zm-7-29.91C81,396,78.65,407.22,79,408.47c.52,1.69,5.94,5.84,11.37,5.84a11.7,11.7,0,0,0,8.29-3.65c-.66-5.52-2-8.32-3.19-10.34-1.32-2.19-.85-6.9-.64-8.52Z"/><path class="cls-3_construction-site-79" d="M144,252.79l-27.45,7.6L110.21,181s22.72-5.38,28.21-2.85S144,252.79,144,252.79Z"/><path class="cls-3_construction-site-79" d="M116.56,261.08a.67.67,0,0,1-.39-.12.72.72,0,0,1-.3-.52l-6.36-79.35a.7.7,0,0,1,.54-.73c.93-.22,23-5.41,28.66-2.81s6,63.13,6,75.24a.71.71,0,0,1-.51.67l-27.45,7.6Zm-5.62-79.5,6.25,77.92,26.13-7.24c-.07-34.58-1.9-71.93-5.19-73.45C133.39,176.63,114.51,180.77,110.94,181.58Z"/><path class="cls-2_construction-site-79" d="M134.86,378.53v18.58l8.87,2.54-.21-3.8,4,4s23.83,4.28,23.7,1.11-2.53-4.91-5.54-6.49C162.46,392.78,154,388,154,388l-1.27-13.62"/><path class="cls-3_construction-site-79" d="M166.8,402.82c-6.33,0-16.77-1.8-19.39-2.28a.66.66,0,0,1-.37-.19l-2.73-2.72.11,2a.7.7,0,0,1-.88.71l-8.87-2.54a.68.68,0,0,1-.5-.66V378.53a.7.7,0,0,1,1.39,0v18.06l7.42,2.12-.16-2.82a.72.72,0,0,1,.41-.68.7.7,0,0,1,.78.15l3.86,3.85c10.21,1.82,21.72,3,22.68,1.72-.13-2.63-2.16-4.25-5.19-5.84-3.2-1.68-11.65-6.45-11.73-6.5a.69.69,0,0,1-.35-.54L152,374.43a.7.7,0,0,1,.63-.76.72.72,0,0,1,.76.63l1.23,13.26c1.57.88,8.55,4.81,11.38,6.3,3,1.57,5.77,3.52,5.92,7.08a1.33,1.33,0,0,1-.48,1.06C170.77,402.59,169,402.82,166.8,402.82Z"/><path class="cls-3_construction-site-79" d="M92.28,260.28,75.8,390.15s.7,5.15,11.89,5.79,10.06-2,10.06-2l26.62-92.28,7.18,82.13,24.16,1.49-4.8-135.07Z"/><path class="cls-3_construction-site-79" d="M91,396.73c-1,0-2.1,0-3.3-.1C76,396,75.14,390.47,75.11,390.24a.54.54,0,0,1,0-.18L91.59,260.2a.69.69,0,0,1,.58-.6l58.62-10.07a.69.69,0,0,1,.81.66l4.8,135.08a.68.68,0,0,1-.2.52.72.72,0,0,1-.53.19l-24.16-1.49a.7.7,0,0,1-.65-.63L124,305.44,98.47,394a1.49,1.49,0,0,1-.28,1C97.39,396.17,95,396.73,91,396.73ZM76.5,390.12c.15.56,1.55,4.58,11.23,5.12,7,.4,8.78-.5,9.23-.91.11-.1.13-.17.13-.19a.46.46,0,0,1,0-.38l26.62-92.29a.7.7,0,0,1,1.36.14l7.12,81.53,22.8,1.41L150.24,251l-57.33,9.84Z"/><path class="cls-4_construction-site-79 targetColor" d="M115.34,171.06s8.61,91.34,4.39,96.82-23.12,12.78-31.56,6-6.64-76.21-2.84-82.12C95.87,183,115.34,171.06,115.34,171.06Z" style="fill: rgb(37, 57, 133);"/><path class="cls-4_construction-site-79 targetColor" d="M150.92,174.37s18,88.77,15.43,91.3-20,7.92-23.82,5.38-12.06-96.92-12.06-96.92S145.43,169.73,150.92,174.37Z" style="fill: rgb(37, 57, 133);"/><path class="cls-2_construction-site-79" d="M128.57,167.39l3.34,11.15s.08,5.53-7.9,6-10.66-4.27-10.66-4.27l-5.49-21s2.07-8.12-3.25-19.58c0,0,10.91-1.38,23.82-3.84,0,0,5.32,16,6.2,22S128.57,167.39,128.57,167.39Z"/><path class="cls-3_construction-site-79" d="M122.83,185.3c-7.39,0-10-4.47-10.09-4.67a.77.77,0,0,1-.07-.16l-5.49-21a.69.69,0,0,1,0-.35c0-.08,1.94-8-3.2-19.12a.7.7,0,0,1,0-.63.71.71,0,0,1,.52-.35c.11,0,11-1.41,23.78-3.84a.68.68,0,0,1,.79.47c.22.65,5.35,16.13,6.23,22.15.81,5.52-4.25,9-5.92,9.95l3.18,10.61a.58.58,0,0,1,0,.19c0,.06,0,6.2-8.56,6.73C123.63,185.29,123.23,185.3,122.83,185.3ZM114,180c.37.58,3,4.29,10,3.85,6.74-.42,7.22-4.56,7.25-5.24l-3.31-11a.7.7,0,0,1,.35-.83c.07,0,6.49-3.32,5.69-8.78-.77-5.26-5-18.42-6-21.33-10.38,1.95-19.47,3.22-22.33,3.61,4.53,10.3,3.22,17.73,3,19Z"/><path class="cls-3_construction-site-79" d="M104,158.44s-8.2-8.83-7.18-15.1,12.71-2.73,12.71-2.73,2.3,15.21,0,19.36S104,158.44,104,158.44Z"/><path class="cls-3_construction-site-79" d="M107.56,162.18c-2.06,0-3.79-2.76-4.12-3.33-.79-.86-8.34-9.29-7.3-15.62A4.48,4.48,0,0,1,98.26,140c3.77-2.35,11.16-.16,11.47-.06a.68.68,0,0,1,.49.56c.09.63,2.31,15.49-.08,19.8a3,3,0,0,1-2.57,1.87ZM103,140.31a7.71,7.71,0,0,0-4,.88,3.11,3.11,0,0,0-1.48,2.27c-1,5.86,6.92,14.42,7,14.5a1,1,0,0,1,.09.13c.6,1,1.93,2.7,3,2.7h0c.47,0,.93-.39,1.35-1.16,1.74-3.12.64-14,0-18.47A24.94,24.94,0,0,0,103,140.31Z"/><path class="cls-2_construction-site-79" d="M111.19,157.59a5.14,5.14,0,0,0-2.45-2.08,8.77,8.77,0,0,0-3-.5,3.67,3.67,0,0,0-1.65.2,3.11,3.11,0,0,0-.94.71,3.91,3.91,0,0,0-1.21,2.43,4.53,4.53,0,0,0,.56,2.15,9.26,9.26,0,0,0,1.27,2.09,6.17,6.17,0,0,0,8.74.66"/><path class="cls-3_construction-site-79" d="M108.45,165.46l-.51,0a6.92,6.92,0,0,1-4.71-2.4,9.73,9.73,0,0,1-1.37-2.24,5.21,5.21,0,0,1-.62-2.48,4.52,4.52,0,0,1,1.4-2.88,3.66,3.66,0,0,1,1.16-.87,4.44,4.44,0,0,1,2-.26,9.59,9.59,0,0,1,3.24.55,5.87,5.87,0,0,1,2.79,2.37.71.71,0,0,1-.24,1,.69.69,0,0,1-1-.24,4.3,4.3,0,0,0-2.11-1.79,8.21,8.21,0,0,0-2.78-.46,3,3,0,0,0-1.34.15,2.21,2.21,0,0,0-.72.55,3.26,3.26,0,0,0-1,2,4.1,4.1,0,0,0,.49,1.82,8.74,8.74,0,0,0,1.17,1.93,5.6,5.6,0,0,0,3.76,1.91,5.48,5.48,0,0,0,4-1.33.71.71,0,0,1,1,.07.7.7,0,0,1-.07,1A6.88,6.88,0,0,1,108.45,165.46Z"/><path class="cls-2_construction-site-79" d="M126.51,148.92s5.85,4.41,5.28,5.72-3.35,1.55-3.35,1.55"/><path class="cls-3_construction-site-79" d="M128.44,156.89a.7.7,0,0,1-.06-1.39c1-.08,2.5-.5,2.77-1.13,0-.57-2.4-2.89-5.06-4.89a.7.7,0,1,1,.84-1.11c2.86,2.16,6.15,5,5.5,6.55-.71,1.65-3.61,1.94-3.94,2Z"/><ellipse class="cls-3_construction-site-79" cx="122.17" cy="147.71" rx="1.01" ry="1.42" transform="translate(-59.15 85.52) rotate(-31.47)"/><ellipse class="cls-3_construction-site-79" cx="128.53" cy="145.53" rx="1.01" ry="1.42" transform="matrix(0.85, -0.52, 0.52, 0.85, -57.07, 88.51)"/><path class="cls-2_construction-site-79" d="M130.67,158.54l-5.11,1.24s.32,3.79,3.23,4S130.67,158.54,130.67,158.54Z"/><path class="cls-3_construction-site-79" d="M128.93,164.46h-.18c-2.78-.18-3.76-3.09-3.88-4.61a.69.69,0,0,1,.53-.73l5.11-1.25a.73.73,0,0,1,.54.09.69.69,0,0,1,.3.46c.08.38.67,3.76-.68,5.29A2.24,2.24,0,0,1,128.93,164.46Zm-2.58-4.15c.2.93.8,2.64,2.49,2.75a.83.83,0,0,0,.78-.28c.56-.63.6-2.19.47-3.38Z"/><path class="cls-3_construction-site-79" d="M128.57,167.39s-5.83,1.6-9,.76c0,0,4.09,6,10.88,6Z"/><path class="cls-3_construction-site-79" d="M130.36,174.82c-7,0-11.17-6-11.34-6.28a.69.69,0,0,1,.75-1.06c2.93.79,8.56-.75,8.61-.76a.69.69,0,0,1,.86.48l1.9,6.74a.71.71,0,0,1-.11.6.68.68,0,0,1-.55.28Zm-9.1-5.74a13.25,13.25,0,0,0,8.28,4.32l-1.46-5.17A29.13,29.13,0,0,1,121.26,169.08Z"/><path class="cls-2_construction-site-79" d="M124.59,306h-.11a.7.7,0,0,1-.58-.8c0-.29,4.74-29.43,4.43-34.68a.69.69,0,1,1,1.38-.08c.32,5.4-4.24,33.78-4.44,35A.69.69,0,0,1,124.59,306Z"/><path class="cls-2_construction-site-79" d="M99.52,284.32A.69.69,0,0,1,99,284a.7.7,0,0,1,.14-1,43,43,0,0,1,6.55-4.35.68.68,0,0,1,.91.35.7.7,0,0,1-.34.92,41.77,41.77,0,0,0-6.29,4.19A.64.64,0,0,1,99.52,284.32Z"/><path class="cls-2_construction-site-79" d="M150.39,282.19a.78.78,0,0,1-.36-.1L141.48,277a.7.7,0,0,1,.72-1.19l8.55,5.13a.7.7,0,0,1-.36,1.29Z"/><path class="cls-2_construction-site-79" d="M135.46,131.14l-7,1.48a17.71,17.71,0,0,0-33.24,11.46l23-4.86v.05l18.13-3.84a2.19,2.19,0,0,0-.91-4.29Z"/><path class="cls-3_construction-site-79" d="M95.25,144.78a.76.76,0,0,1-.38-.11.72.72,0,0,1-.3-.44,18.41,18.41,0,0,1,34.3-12.4l6.45-1.37a2.89,2.89,0,0,1,1.19,5.66L118.38,140a.65.65,0,0,1-.24,0l-22.74,4.8Zm17.35-21.39a17,17,0,0,0-16.8,19.86l22.28-4.71h.25l17.89-3.78a1.46,1.46,0,0,0,.95-.65,1.47,1.47,0,0,0,.21-1.12,1.5,1.5,0,0,0-1.77-1.15h0l-7,1.47a.69.69,0,0,1-.77-.38A17,17,0,0,0,112.6,123.39Zm22.86,7.75h0Z"/><path class="cls-2_construction-site-79" d="M128.49,132.62c-.64-.19-25.07,5-25.07,5"/><path class="cls-3_construction-site-79" d="M103.42,138.31a.7.7,0,0,1-.14-1.38c24.61-5.22,25.19-5,25.41-5a.7.7,0,0,1,.47.87.71.71,0,0,1-.75.49c-1.22.05-15.49,3-24.84,5Z"/><path class="cls-2_construction-site-79" d="M115,131.91a14.68,14.68,0,0,0-6.92-8.46"/><path class="cls-3_construction-site-79" d="M115,132.61a.68.68,0,0,1-.66-.49,13.85,13.85,0,0,0-6.6-8.05.7.7,0,0,1,.67-1.23,15.3,15.3,0,0,1,7.26,8.87.71.71,0,0,1-.46.87Z"/><path class="cls-2_construction-site-79" d="M119,131.1a21.49,21.49,0,0,0-5.86-8.4"/><path class="cls-3_construction-site-79" d="M119,131.8a.7.7,0,0,1-.65-.45,20.65,20.65,0,0,0-5.67-8.12.71.71,0,0,1-.07-1,.7.7,0,0,1,1-.06,22,22,0,0,1,6.06,8.67.69.69,0,0,1-.4.9A.74.74,0,0,1,119,131.8Z"/><path class="cls-3_construction-site-79" d="M103.84,268.08a.7.7,0,0,1-.69-.68c0-.47-1.24-47.46-1.85-59.6a183.94,183.94,0,0,0-2.44-22,.69.69,0,0,1,.55-.81.7.7,0,0,1,.82.55,186,186,0,0,1,2.47,22.22c.6,12.17,1.83,59.17,1.84,59.64a.7.7,0,0,1-.68.72Z"/><path class="cls-3_construction-site-79" d="M84.79,250.87a.7.7,0,0,1-.69-.62.69.69,0,0,1,.61-.77c.22,0,22.07-2.49,28.63-6.07a.7.7,0,1,1,.67,1.23c-6.8,3.71-28.23,6.12-29.14,6.22Z"/><path class="cls-3_construction-site-79" d="M151.79,258.86a.69.69,0,0,1-.69-.6c-3.65-25.51-13.27-79.41-13.37-79.95a.7.7,0,0,1,1.38-.25c.09.54,9.72,54.47,13.37,80a.69.69,0,0,1-.6.79Z"/><path class="cls-3_construction-site-79" d="M142.57,243.49a.7.7,0,0,1-.14-1.38l18.44-3.69a.71.71,0,0,1,.82.55.69.69,0,0,1-.55.82l-18.44,3.69Z"/><path class="cls-3_construction-site-79" d="M85.33,191.78S48,246.64,66.2,261.85c16.69,13.94,53.62-9.22,53.62-9.22L117.6,233s-32.49,15.43-33,8.07c-.7-10.84,4.45-14.91,4.45-14.91Z"/><path class="cls-2_construction-site-79" d="M116.1,212.2,119.33,279s53.82,16.46,70.87-8.89l4.73-69.47S147,219.58,116.1,212.2Z"/><path class="cls-3_construction-site-79" d="M154.44,285q-3,0-6.11-.19a143,143,0,0,1-29.21-5.09.71.71,0,0,1-.49-.63l-3.22-66.85a.69.69,0,0,1,.25-.57.73.73,0,0,1,.6-.14c30.32,7.24,77.94-11.31,78.41-11.49a.69.69,0,0,1,.67.08.72.72,0,0,1,.29.61l-4.73,69.47a.73.73,0,0,1-.12.35C184.38,280,171.89,285,154.44,285ZM120,278.51c5.3,1.52,53.67,14.59,69.52-8.6l4.64-68.2a238.93,238.93,0,0,1-26.9,8.17c-14.26,3.42-34.47,6.71-50.42,3.2Z"/><path class="cls-2_construction-site-79" d="M111.66,239.72a9.15,9.15,0,0,1,.34-4.42,8.61,8.61,0,0,1,1.87-2.58,43.14,43.14,0,0,1,4.25-3.86c1.35-1.07,3-2.11,4.68-1.76a10.2,10.2,0,0,1-4.06,6.11,5.57,5.57,0,0,1,2.59-1.67c.68-.2,1.6-.17,1.88.48a1.58,1.58,0,0,1-.17,1.28,11.08,11.08,0,0,1-3.52,4.31l1.64-1a3.27,3.27,0,0,1,1.37-.59,1.19,1.19,0,0,1,1.26.63,1.49,1.49,0,0,1-.12,1.11,5.54,5.54,0,0,1-2,2.45,4.66,4.66,0,0,1,2.06-1,1.61,1.61,0,0,1,1.79,1.09,1.89,1.89,0,0,1-.25,1.2c-1.21,2.34-4.11,2.61-5.51,4.57-1,1.48-.56,3.06-2.71,3.95C111.68,252.24,112,242.77,111.66,239.72Z"/><path class="cls-3_construction-site-79" d="M115.54,251.06a3,3,0,0,1-1.64-.46c-2.38-1.5-2.65-6.23-2.83-9.37,0-.56-.06-1.06-.1-1.45a9.83,9.83,0,0,1,.38-4.75,9.32,9.32,0,0,1,2-2.79,44.53,44.53,0,0,1,4.31-3.93c1.4-1.1,3.24-2.32,5.27-1.89a.72.72,0,0,1,.44.3.71.71,0,0,1,.09.53,10.79,10.79,0,0,1-1.44,3.49h0a1.84,1.84,0,0,1,1.8,1,2.26,2.26,0,0,1-.17,1.85,12,12,0,0,1-1,1.71,1.87,1.87,0,0,1,1.73,1.08,2.23,2.23,0,0,1-.13,1.64c-.07.17-.16.34-.24.51a2.23,2.23,0,0,1,2.1,1.65,2.48,2.48,0,0,1-.32,1.66,7.3,7.3,0,0,1-3.23,2.87,7,7,0,0,0-2.33,1.79,5,5,0,0,0-.63,1.39,3.9,3.9,0,0,1-2.38,2.79A4.68,4.68,0,0,1,115.54,251.06Zm6.37-23.32a6.69,6.69,0,0,0-3.36,1.67,41.56,41.56,0,0,0-4.17,3.79,8.08,8.08,0,0,0-1.74,2.37,8.56,8.56,0,0,0-.28,4.08h0c0,.4.06.92.1,1.51.14,2.49.41,7.14,2.19,8.26a2.2,2.2,0,0,0,2.09,0,2.52,2.52,0,0,0,1.6-1.94,6.11,6.11,0,0,1,.82-1.76,8,8,0,0,1,2.77-2.19,6.05,6.05,0,0,0,2.68-2.3,1.21,1.21,0,0,0,.19-.75c-.07-.35-.6-.57-1-.53a3.8,3.8,0,0,0-1.57.73l-.18.13a.69.69,0,0,1-1-.19.7.7,0,0,1,.18-1l.17-.11a4.87,4.87,0,0,0,1.62-2c.14-.35.14-.51.11-.59a.52.52,0,0,0-.52-.19,2.92,2.92,0,0,0-1.09.49l-1.64,1a.7.7,0,0,1-1-.2.72.72,0,0,1,.17-1,10.27,10.27,0,0,0,3.3-4c.16-.35.22-.59.16-.71s-.58-.23-1-.09a5,5,0,0,0-1.06.46,9.43,9.43,0,0,1-1.33,1.11.7.7,0,0,1-.92-1,6.21,6.21,0,0,1,1.38-1.18A9.55,9.55,0,0,0,121.91,227.74Z"/><path class="cls-2_construction-site-79" d="M197.83,230.32c-.21-2.85-1.09-6-3.56-7.41a5.32,5.32,0,0,0-5-.1c-.27.15-.56.34-.62.64s.32.82.71,1.05a9.7,9.7,0,0,0,2.63,1.12,3.65,3.65,0,0,0-3.65,2.11,5.77,5.77,0,0,0,3.61,1.92,2.43,2.43,0,0,0-2.55.88c-.91,1.28-.18,1.64.82,2.41a2.21,2.21,0,0,0-1.32.13,1.13,1.13,0,0,0-.68,1.06c.08.82,1.11,1.08,1.83,1.49a2.85,2.85,0,0,1,1.24,1.51,5.44,5.44,0,0,0,.35,1c1.44,2.46,4.55.41,5.31-1.31A14.21,14.21,0,0,0,197.83,230.32Z"/><path class="cls-3_construction-site-79" d="M193.46,240a2.76,2.76,0,0,1-2.44-1.48,3.32,3.32,0,0,1-.32-.85l-.09-.31a2.06,2.06,0,0,0-.93-1.12c-.15-.09-.32-.17-.48-.25-.67-.32-1.6-.76-1.69-1.79a1.81,1.81,0,0,1,1.07-1.75h0c-.39-.54-.51-1.26.23-2.31a2.7,2.7,0,0,1,.59-.62,6.41,6.41,0,0,1-1.6-1.33.68.68,0,0,1-.11-.73,4.22,4.22,0,0,1,1.87-2,6.65,6.65,0,0,1-.58-.33c-1.09-.66-1.11-1.41-1-1.79a1.71,1.71,0,0,1,1-1.11,6.06,6.06,0,0,1,5.7.11c2.87,1.65,3.71,5.24,3.9,8h0a15.21,15.21,0,0,1-1,6.87,5.14,5.14,0,0,1-3.95,2.85Zm-3.76-6.39a1.35,1.35,0,0,0-.52.09.5.5,0,0,0-.28.38c0,.22.39.41.9.66.2.09.39.19.57.29a3.46,3.46,0,0,1,1.55,1.88,2.64,2.64,0,0,1,.12.4,3.3,3.3,0,0,0,.18.51,1.36,1.36,0,0,0,1.33.79,3.77,3.77,0,0,0,2.74-2,13.78,13.78,0,0,0,.84-6.2c-.17-2.38-.86-5.5-3.21-6.85a4.62,4.62,0,0,0-4.35-.09.85.85,0,0,0-.27.19s.12.12.4.29a9.32,9.32,0,0,0,2.45,1,.69.69,0,0,1-.26,1.36,2.94,2.94,0,0,0-2.71,1.3A5,5,0,0,0,192,229h0a.69.69,0,0,1,.61.77.71.71,0,0,1-.78.61h0c-1-.12-1.49,0-1.88.59s-.44.62.41,1.26l.26.2a.67.67,0,0,1,.22.82.69.69,0,0,1-.75.42Z"/><path class="cls-3_construction-site-79" d="M90.63,206.31a.7.7,0,0,1-.67-.51.69.69,0,0,1,.48-.86L113,198.49a.68.68,0,0,1,.86.47.71.71,0,0,1-.48.87l-22.59,6.45A.63.63,0,0,1,90.63,206.31Z"/><path class="cls-3_construction-site-79" d="M136.27,194.32a.7.7,0,0,1-.08-1.39l16.13-1.84a.69.69,0,1,1,.16,1.38l-16.13,1.85Z"/></g></svg>